<svg width="173" height="162" viewBox="0 0 173 162" fill="none" xmlns="http://www.w3.org/2000/svg">
<g filter="url(#filter0_d_33_335)">
<g filter="url(#filter1_d_33_335)">
<path d="M39.896 89.1038V89.1633C27.2773 90.013 17.2932 100.936 17.2932 114.294C17.2932 127.652 27.2773 138.575 39.896 139.424V139.484H63.3179V89.1038H39.896Z" fill="#D32A2A"/>
<path d="M21.6381 49.9216V49.968C12.9078 50.6287 6 59.124 6 69.5129C6 79.9017 12.9075 88.3967 21.6381 89.0577V89.1041H37.843V49.9216H21.6381Z" fill="#132028"/>
<path d="M46.9988 6.00024V6.05204C37.2125 6.79268 29.4695 16.3154 29.4695 27.9607C29.4695 39.606 37.2125 49.1287 46.9988 49.8694V49.9212H68.3806V6.00024H46.9988Z" fill="#005877"/>
<path d="M137.078 40.5069V15.4153C137.078 14.0992 138.103 13.0323 139.366 13.0323H144.17C145.433 13.0323 146.458 11.9653 146.458 10.6493V8.38301C146.458 7.06696 145.433 6 144.17 6H70.6515C69.3879 6 68.3635 7.06696 68.3635 8.38301V47.5385C68.3635 48.8546 69.3879 49.9215 70.6515 49.9215H144.17C145.433 49.9215 146.458 48.8546 146.458 47.5385V45.2723C146.458 43.9562 145.433 42.8893 144.17 42.8893H139.366C138.103 42.8896 137.078 41.8229 137.078 40.5069Z" fill="#00B1FF"/>
<path d="M125.331 57.209H139.85C141.568 57.209 142.96 56.0912 142.96 54.7119V52.4185C142.96 51.0395 141.568 49.9214 139.85 49.9214H37.2093V49.9807C28.6624 50.7255 21.9216 59.1822 21.9216 69.5123C21.9216 79.8425 28.6624 88.2991 37.2093 89.044V89.1033H139.85C141.568 89.1033 142.96 87.9854 142.96 86.6062V84.1022C142.96 82.7233 141.568 81.6052 139.85 81.6052H125.331C123.614 81.6052 122.222 80.4873 122.222 79.1081V59.7052C122.222 58.3269 123.614 57.209 125.331 57.209Z" fill="#445056"/>
<path d="M135.829 81.6059L135.221 81.0206C134.933 80.72 134.933 80.2326 135.221 79.9324L135.881 79.2456C136.169 78.945 136.169 78.4577 135.881 78.1574L135.221 77.4706C134.933 77.1701 134.933 76.683 135.221 76.3824L135.881 75.6956C136.169 75.3951 136.169 74.9077 135.881 74.6074L135.221 73.9207C134.933 73.6201 134.933 73.133 135.221 72.8324L135.881 72.1457C136.169 71.8451 136.169 71.3577 135.881 71.0575L135.221 70.3707C134.933 70.0701 134.933 69.5831 135.221 69.2825L135.881 68.5957C136.169 68.2952 136.169 67.8078 135.881 67.5075L135.221 66.8207C134.933 66.5202 134.933 66.0331 135.221 65.7325L135.881 65.0458C136.169 64.7452 136.169 64.2578 135.881 63.9575L135.221 63.2708C134.933 62.9702 134.933 62.4828 135.221 62.1826L135.881 61.4958C136.169 61.1952 136.169 60.7079 135.881 60.4076L135.221 59.7208C134.933 59.4203 134.933 58.9329 135.221 58.6326L135.881 57.9458C136.169 57.6453 136.169 57.4965 135.881 57.1962L134.699 57.207H41.4281C40.5814 56.9184 39.6903 56.7612 38.7694 56.7612C33.2592 56.7612 28.7922 62.2772 28.7922 69.0816C28.7922 75.886 33.2592 81.402 38.7694 81.402V81.6523H134.699" fill="#DCE2E2"/>
<path d="M68.3636 6.00024C56.719 6.00024 47.2793 15.8322 47.2793 27.9607C47.2793 40.0892 56.719 49.9212 68.3636 49.9212H78.9058V6.00024H68.3636Z" fill="#0074A8"/>
<path d="M142.913 18.0033C143.202 17.7027 143.202 17.2157 142.913 16.9151L142.254 16.2283C141.965 15.9278 141.965 15.4404 142.254 15.1401L142.913 14.4533C143.202 14.1528 143.248 13.3328 142.96 13.0322H141.732H69.3548C61.4391 13.0322 55.022 19.716 55.022 27.9607C55.022 36.2055 61.4391 42.8892 69.3548 42.8892H141.732H142.917C143.205 42.5887 143.202 42.0648 142.914 41.7642L142.254 41.0774C141.966 40.7769 141.966 40.2898 142.254 39.9892L142.914 39.3025C143.202 39.0019 143.202 38.5145 142.914 38.2142L142.254 37.5275C141.966 37.2269 141.966 36.7398 142.254 36.4393L142.914 35.7525C143.202 35.4519 143.202 34.9646 142.914 34.6643L142.254 33.9775C141.966 33.677 141.966 33.1899 142.254 32.8893L142.914 32.2025C143.202 31.902 143.202 31.4146 142.914 31.1143L142.254 30.4276C141.966 30.127 141.966 29.6399 142.254 29.3393L142.914 28.6526C143.202 28.352 143.202 27.8646 142.914 27.5644L142.254 26.8776C141.966 26.577 141.966 26.09 142.254 25.7894L142.914 25.1026C143.202 24.8021 143.202 24.3147 142.914 24.0144L142.254 23.3276C141.966 23.0271 141.966 22.54 142.254 22.2394L142.914 21.5527C143.202 21.2521 143.202 20.7647 142.914 20.4644L142.254 19.7777C141.966 19.4771 141.966 18.9897 142.254 18.6895L142.913 18.0033Z" fill="#DCE2E2"/>
<path d="M142.866 97.1698H148.376C149.825 97.1698 151 95.9459 151 94.4365V91.837C151 90.3276 149.825 89.1038 148.376 89.1038H60.6286C60.401 89.1038 60.1817 89.137 59.971 89.1939C59.3217 89.1394 58.6672 89.1038 58.0041 89.1038C44.6471 89.1038 33.8191 100.382 33.8191 114.294C33.8191 128.206 44.6471 139.484 58.0041 139.484C58.6669 139.484 59.3214 139.448 59.971 139.394C60.1814 139.45 60.401 139.484 60.6286 139.484H148.375C149.825 139.484 151 138.26 151 136.751V134.151C151 132.642 149.825 131.418 148.375 131.418H142.865C141.416 131.418 140.241 130.194 140.241 128.685V99.9033C140.242 98.3936 141.417 97.1698 142.866 97.1698Z" fill="#FF473E"/>
<path d="M147.034 103.025C147.351 102.694 147.351 102.158 147.034 101.828L146.309 101.072C145.991 100.742 145.991 100.206 146.309 99.875L147.034 99.1197C147.351 98.7892 147.351 98.253 147.034 97.9225L146.33 97.1702H145.734H59.1418C50.0619 97.1702 42.7012 104.837 42.7012 114.294C42.7012 123.751 50.0619 131.418 59.1418 131.418H145.734H146.021L147.034 130.363C147.351 130.033 147.351 129.496 147.034 129.166L146.309 128.411C145.991 128.08 145.991 127.544 146.309 127.213L147.034 126.458C147.351 126.128 147.351 125.591 147.034 125.261L146.309 124.505C145.991 124.175 145.991 123.639 146.309 123.308L147.034 122.553C147.351 122.222 147.351 121.686 147.034 121.356L146.309 120.6C145.991 120.27 145.991 119.734 146.309 119.403L147.034 118.647C147.351 118.317 147.351 117.781 147.034 117.45L146.309 116.695C145.991 116.364 145.991 115.828 146.309 115.498L147.034 114.742C147.351 114.412 147.351 113.876 147.034 113.545L146.309 112.79C145.991 112.459 145.991 111.923 146.309 111.592L147.034 110.837C147.351 110.507 147.351 109.97 147.034 109.64L146.309 108.885C145.991 108.554 145.991 108.018 146.309 107.687L147.034 106.932C147.351 106.602 147.351 106.065 147.034 105.735L146.309 104.98C145.991 104.649 145.991 104.113 146.309 103.782L147.034 103.025Z" fill="#DCE2E2"/>
</g>
</g>
<defs>
<filter id="filter0_d_33_335" x="0" y="0" width="173" height="161.484" filterUnits="userSpaceOnUse" color-interpolation-filters="sRGB">
<feFlood flood-opacity="0" result="BackgroundImageFix"/>
<feColorMatrix in="SourceAlpha" type="matrix" values="0 0 0 0 0 0 0 0 0 0 0 0 0 0 0 0 0 0 127 0" result="hardAlpha"/>
<feOffset dx="8" dy="8"/>
<feGaussianBlur stdDeviation="7"/>
<feComposite in2="hardAlpha" operator="out"/>
<feColorMatrix type="matrix" values="0 0 0 0 1 0 0 0 0 0.25098 0 0 0 0 0.298039 0 0 0 0.85 0"/>
<feBlend mode="normal" in2="BackgroundImageFix" result="effect1_dropShadow_33_335"/>
<feBlend mode="normal" in="SourceGraphic" in2="effect1_dropShadow_33_335" result="shape"/>
</filter>
<filter id="filter1_d_33_335" x="6" y="4" width="165" height="153.484" filterUnits="userSpaceOnUse" color-interpolation-filters="sRGB">
<feFlood flood-opacity="0" result="BackgroundImageFix"/>
<feColorMatrix in="SourceAlpha" type="matrix" values="0 0 0 0 0 0 0 0 0 0 0 0 0 0 0 0 0 0 127 0" result="hardAlpha"/>
<feOffset dx="10" dy="8"/>
<feGaussianBlur stdDeviation="5"/>
<feComposite in2="hardAlpha" operator="out"/>
<feColorMatrix type="matrix" values="0 0 0 0 0.775833 0 0 0 0 0.321324 0 0 0 0 0.430407 0 0 0 0.64 0"/>
<feBlend mode="normal" in2="BackgroundImageFix" result="effect1_dropShadow_33_335"/>
<feBlend mode="normal" in="SourceGraphic" in2="effect1_dropShadow_33_335" result="shape"/>
</filter>
</defs>
</svg>
