<svg width="163" height="162" viewBox="0 0 163 162" fill="none" xmlns="http://www.w3.org/2000/svg">
<g filter="url(#filter0_d_33_334)">
<g filter="url(#filter1_d_33_334)">
<path d="M37.5583 89.1038V89.1633C25.8099 90.013 16.5144 100.936 16.5144 114.294C16.5144 127.652 25.8099 138.575 37.5583 139.424V139.484H59.3649V89.1038H37.5583Z" fill="#D32A2A"/>
<path d="M20.5596 49.9216V49.968C12.4314 50.6287 6 59.124 6 69.5129C6 79.9017 12.4311 88.3967 20.5596 89.0577V89.1041H35.6469V49.9216H20.5596Z" fill="#132028"/>
<path d="M44.1713 6.00024V6.05204C35.0598 6.79268 27.8508 16.3154 27.8508 27.9607C27.8508 39.606 35.0598 49.1287 44.1713 49.8694V49.9212H64.0784V6.00024H44.1713Z" fill="#005877"/>
<path d="M128.039 40.5069V15.4153C128.039 14.0992 128.992 13.0323 130.169 13.0323H134.641C135.817 13.0323 136.771 11.9653 136.771 10.6493V8.38301C136.771 7.06696 135.817 6 134.641 6H66.1929C65.0165 6 64.0627 7.06696 64.0627 8.38301V47.5385C64.0627 48.8546 65.0165 49.9215 66.1929 49.9215H134.641C135.817 49.9215 136.771 48.8546 136.771 47.5385V45.2723C136.771 43.9562 135.817 42.8893 134.641 42.8893H130.169C128.992 42.8896 128.039 41.8229 128.039 40.5069Z" fill="#00B1FF"/>
<path d="M117.102 57.209H130.619C132.218 57.209 133.515 56.0912 133.515 54.7119V52.4185C133.515 51.0395 132.218 49.9214 130.619 49.9214H35.0571V49.9807C27.0996 50.7255 20.8237 59.1822 20.8237 69.5123C20.8237 79.8425 27.0996 88.2991 35.0571 89.044V89.1033H130.619C132.218 89.1033 133.515 87.9854 133.515 86.6062V84.1022C133.515 82.7233 132.218 81.6052 130.619 81.6052H117.102C115.503 81.6052 114.206 80.4873 114.206 79.1081V59.7052C114.206 58.3269 115.503 57.209 117.102 57.209Z" fill="#445056"/>
<path d="M126.876 81.6059L126.31 81.0206C126.041 80.72 126.041 80.2326 126.31 79.9324L126.923 79.2456C127.192 78.945 127.192 78.4577 126.923 78.1574L126.31 77.4706C126.041 77.1701 126.041 76.683 126.31 76.3824L126.923 75.6956C127.192 75.3951 127.192 74.9077 126.923 74.6074L126.31 73.9207C126.041 73.6201 126.041 73.133 126.31 72.8324L126.923 72.1457C127.192 71.8451 127.192 71.3577 126.923 71.0575L126.31 70.3707C126.041 70.0701 126.041 69.5831 126.31 69.2825L126.923 68.5957C127.192 68.2952 127.192 67.8078 126.923 67.5075L126.31 66.8207C126.041 66.5202 126.041 66.0331 126.31 65.7325L126.923 65.0458C127.192 64.7452 127.192 64.2578 126.923 63.9575L126.31 63.2708C126.041 62.9702 126.041 62.4828 126.31 62.1826L126.923 61.4958C127.192 61.1952 127.192 60.7079 126.923 60.4076L126.31 59.7208C126.041 59.4203 126.041 58.9329 126.31 58.6326L126.923 57.9458C127.192 57.6453 127.192 57.4965 126.923 57.1962L125.823 57.207H38.9849C38.1966 56.9184 37.367 56.7612 36.5096 56.7612C31.3793 56.7612 27.2205 62.2772 27.2205 69.0816C27.2205 75.886 31.3793 81.402 36.5096 81.402V81.6523H125.824" fill="#DCE2E2"/>
<path d="M64.0625 6.00024C53.2211 6.00024 44.4324 15.8322 44.4324 27.9607C44.4324 40.0892 53.2211 49.9212 64.0625 49.9212H73.8778V6.00024H64.0625Z" fill="#0074A8"/>
<path d="M133.471 18.0033C133.74 17.7027 133.74 17.2157 133.471 16.9151L132.857 16.2283C132.588 15.9278 132.588 15.4404 132.857 15.1401L133.471 14.4533C133.74 14.1528 133.783 13.3328 133.514 13.0322H132.371H64.9855C57.6157 13.0322 51.6411 19.716 51.6411 27.9607C51.6411 36.2055 57.6157 42.8892 64.9855 42.8892H132.371H133.474C133.743 42.5887 133.74 42.0648 133.471 41.7642L132.857 41.0774C132.589 40.7769 132.589 40.2898 132.857 39.9892L133.471 39.3025C133.74 39.0019 133.74 38.5145 133.471 38.2142L132.857 37.5275C132.589 37.2269 132.589 36.7398 132.857 36.4393L133.471 35.7525C133.74 35.4519 133.74 34.9646 133.471 34.6643L132.857 33.9775C132.589 33.677 132.589 33.1899 132.857 32.8893L133.471 32.2025C133.74 31.902 133.74 31.4146 133.471 31.1143L132.857 30.4276C132.589 30.127 132.589 29.6399 132.857 29.3393L133.471 28.6526C133.74 28.352 133.74 27.8646 133.471 27.5644L132.857 26.8776C132.589 26.577 132.589 26.09 132.857 25.7894L133.471 25.1026C133.74 24.8021 133.74 24.3147 133.471 24.0144L132.857 23.3276C132.589 23.0271 132.589 22.54 132.857 22.2394L133.471 21.5527C133.74 21.2521 133.74 20.7647 133.471 20.4644L132.857 19.7777C132.589 19.4771 132.589 18.9897 132.857 18.6895L133.471 18.0033Z" fill="#DCE2E2"/>
<path d="M133.427 97.1698H138.557C139.906 97.1698 141 95.9459 141 94.4365V91.837C141 90.3276 139.906 89.1038 138.557 89.1038H56.8612C56.6493 89.1038 56.4451 89.137 56.249 89.1939C55.6444 89.1394 55.0351 89.1038 54.4177 89.1038C41.9819 89.1038 31.9006 100.382 31.9006 114.294C31.9006 128.206 41.9819 139.484 54.4177 139.484C55.0348 139.484 55.6442 139.448 56.249 139.394C56.4448 139.45 56.6493 139.484 56.8612 139.484H138.557C139.906 139.484 141 138.26 141 136.751V134.151C141 132.642 139.906 131.418 138.557 131.418H133.427C132.077 131.418 130.983 130.194 130.983 128.685V99.9033C130.984 98.3936 132.078 97.1698 133.427 97.1698Z" fill="#FF473E"/>
<path d="M137.307 103.025C137.603 102.694 137.603 102.158 137.307 101.828L136.632 101.072C136.337 100.742 136.337 100.206 136.632 99.875L137.307 99.1197C137.603 98.7892 137.603 98.253 137.307 97.9225L136.652 97.1702H136.097H55.4769C47.0233 97.1702 40.1702 104.837 40.1702 114.294C40.1702 123.751 47.0233 131.418 55.4769 131.418H136.097H136.365L137.307 130.363C137.603 130.033 137.603 129.496 137.307 129.166L136.632 128.411C136.337 128.08 136.337 127.544 136.632 127.213L137.307 126.458C137.603 126.128 137.603 125.591 137.307 125.261L136.632 124.505C136.337 124.175 136.337 123.639 136.632 123.308L137.307 122.553C137.603 122.222 137.603 121.686 137.307 121.356L136.632 120.6C136.337 120.27 136.337 119.734 136.632 119.403L137.307 118.647C137.603 118.317 137.603 117.781 137.307 117.45L136.632 116.695C136.337 116.364 136.337 115.828 136.632 115.498L137.307 114.742C137.603 114.412 137.603 113.876 137.307 113.545L136.632 112.79C136.337 112.459 136.337 111.923 136.632 111.592L137.307 110.837C137.603 110.507 137.603 109.97 137.307 109.64L136.632 108.885C136.337 108.554 136.337 108.018 136.632 107.687L137.307 106.932C137.603 106.602 137.603 106.065 137.307 105.735L136.632 104.98C136.337 104.649 136.337 104.113 136.632 103.782L137.307 103.025Z" fill="#DCE2E2"/>
</g>
</g>
<defs>
<filter id="filter0_d_33_334" x="0" y="0" width="163" height="161.484" filterUnits="userSpaceOnUse" color-interpolation-filters="sRGB">
<feFlood flood-opacity="0" result="BackgroundImageFix"/>
<feColorMatrix in="SourceAlpha" type="matrix" values="0 0 0 0 0 0 0 0 0 0 0 0 0 0 0 0 0 0 127 0" result="hardAlpha"/>
<feOffset dx="8" dy="8"/>
<feGaussianBlur stdDeviation="7"/>
<feComposite in2="hardAlpha" operator="out"/>
<feColorMatrix type="matrix" values="0 0 0 0 1 0 0 0 0 0.25098 0 0 0 0 0.298039 0 0 0 0.85 0"/>
<feBlend mode="normal" in2="BackgroundImageFix" result="effect1_dropShadow_33_334"/>
<feBlend mode="normal" in="SourceGraphic" in2="effect1_dropShadow_33_334" result="shape"/>
</filter>
<filter id="filter1_d_33_334" x="6" y="4" width="155" height="153.484" filterUnits="userSpaceOnUse" color-interpolation-filters="sRGB">
<feFlood flood-opacity="0" result="BackgroundImageFix"/>
<feColorMatrix in="SourceAlpha" type="matrix" values="0 0 0 0 0 0 0 0 0 0 0 0 0 0 0 0 0 0 127 0" result="hardAlpha"/>
<feOffset dx="10" dy="8"/>
<feGaussianBlur stdDeviation="5"/>
<feComposite in2="hardAlpha" operator="out"/>
<feColorMatrix type="matrix" values="0 0 0 0 0.775833 0 0 0 0 0.321324 0 0 0 0 0.430407 0 0 0 0.64 0"/>
<feBlend mode="normal" in2="BackgroundImageFix" result="effect1_dropShadow_33_334"/>
<feBlend mode="normal" in="SourceGraphic" in2="effect1_dropShadow_33_334" result="shape"/>
</filter>
</defs>
</svg>
