<svg width="66" height="63" viewBox="0 0 66 63" fill="none" xmlns="http://www.w3.org/2000/svg">
<path fill-rule="evenodd" clip-rule="evenodd" d="M33.0002 0C20.8241 0 10.9497 9.4223 10.9497 21.0464C10.9497 30.3451 17.2676 38.2343 26.0292 41.0169C27.1311 41.2118 27.5359 40.5603 27.5359 40.0043C27.5359 39.5027 27.5151 37.8445 27.5058 36.0864C21.3709 37.3592 20.0767 33.6031 20.0767 33.6031C19.0738 31.1702 17.6283 30.5232 17.6283 30.5232C15.6277 29.2172 17.7786 29.2439 17.7786 29.2439C19.9933 29.3923 21.1594 31.4131 21.1594 31.4131C23.1258 34.6305 26.3179 33.7 27.5758 33.1623C27.7743 31.8019 28.3454 30.8729 28.9762 30.3475C24.0784 29.8158 18.9297 28.0106 18.9297 19.9463C18.9297 17.6484 19.7911 15.7711 21.2019 14.2969C20.9728 13.7666 20.2182 11.6256 21.4154 8.72677C21.4154 8.72677 23.2668 8.16184 27.4794 10.8851C29.239 10.4186 31.1255 10.1846 32.9991 10.1767C34.8732 10.1851 36.7608 10.4191 38.523 10.8851C42.7315 8.16233 44.5807 8.72726 44.5807 8.72726C45.7811 11.6261 45.0264 13.7666 44.7974 14.2974C46.2112 15.7706 47.0664 17.6484 47.0664 19.9468C47.0664 28.0299 41.9079 29.8098 36.9977 30.3302C37.7886 30.9832 38.4935 32.2645 38.4935 34.2284C38.4935 37.0441 38.4686 39.3103 38.4686 40.0033C38.4686 40.5623 38.8656 41.2193 39.983 41.0125C48.74 38.2264 55.0496 30.3401 55.0496 21.0445C55.0506 9.42279 45.1783 0 33.0002 0Z" fill="#181616"/>
<path d="M19.302 30.2172C19.2528 30.3221 19.0802 30.3533 18.9237 30.2815C18.763 30.2123 18.6739 30.0703 18.7257 29.9649C18.7723 29.8581 18.9454 29.8279 19.1056 29.8996C19.2663 29.9689 19.357 30.1124 19.302 30.2172ZM20.195 31.169C20.0898 31.2615 19.8841 31.2185 19.7441 31.0711C19.6 30.9241 19.5731 30.7277 19.6799 30.6338C19.7877 30.5408 19.9872 30.5843 20.1308 30.7312C20.2759 30.8796 20.3044 31.074 20.1945 31.1685L20.195 31.169ZM21.0642 32.38C20.9294 32.47 20.7081 32.3859 20.5718 32.1984C20.436 32.012 20.436 31.7879 20.5744 31.6973C20.7112 31.6073 20.9289 31.6884 21.0668 31.8739C21.2026 32.0644 21.2026 32.289 21.0642 32.38ZM22.2552 33.5514C22.1345 33.6786 21.8769 33.6444 21.6887 33.4708C21.4959 33.3011 21.4425 33.0602 21.5633 32.9331C21.6861 32.8059 21.9448 32.8415 22.1345 33.0137C22.3262 33.1829 22.3843 33.4248 22.2552 33.5514ZM23.8992 34.2311C23.8453 34.3963 23.5976 34.471 23.3478 34.4013C23.0979 34.3291 22.9352 34.1361 22.985 33.9699C23.0368 33.8037 23.2866 33.726 23.538 33.8007C23.7867 33.872 23.9505 34.0629 23.8992 34.2311ZM25.7028 34.3573C25.7096 34.5304 25.4976 34.6749 25.2354 34.6778C24.9721 34.6838 24.7585 34.5433 24.7554 34.3721C24.7554 34.197 24.9627 34.0545 25.226 34.0506C25.4883 34.0456 25.7028 34.1851 25.7028 34.3573ZM27.3821 34.0847C27.4132 34.2539 27.2318 34.428 26.9711 34.474C26.7151 34.5195 26.4787 34.4146 26.4456 34.2465C26.4145 34.0733 26.5995 33.9002 26.855 33.8547C27.1157 33.8111 27.3489 33.9125 27.3821 34.0847Z" fill="#181616"/>
<path d="M12.712 52.8276H7.16633C7.0976 52.8276 7.03169 52.8536 6.98309 52.9C6.93449 52.9464 6.90719 53.0093 6.90719 53.0749V55.6631C6.90719 55.7287 6.93449 55.7916 6.98309 55.838C7.03169 55.8844 7.0976 55.9105 7.16633 55.9105H9.32913V59.1259C9.32913 59.1259 8.8435 59.2842 7.49959 59.2842C5.91571 59.2842 3.70211 58.7322 3.70211 54.0861C3.70211 49.4395 6.00744 48.8275 8.1718 48.8275C10.0449 48.8275 10.8513 49.1422 11.3655 49.294C11.5261 49.3405 11.6764 49.1872 11.6764 49.0506L12.2948 46.55C12.2958 46.5126 12.2872 46.4754 12.2699 46.4418C12.2526 46.4082 12.227 46.3791 12.1953 46.3571C11.9864 46.2146 10.7145 45.5359 7.50062 45.5359C3.79799 45.5359 0 47.0387 0 54.2671C0 61.4945 4.34841 62.5714 8.01269 62.5714C11.0467 62.5714 12.8872 61.3337 12.8872 61.3337C12.9628 61.2941 12.9711 61.1927 12.9711 61.1457V53.0744C12.9711 53.0088 12.9438 52.9459 12.8952 52.8995C12.8466 52.8531 12.7807 52.8276 12.712 52.8276ZM41.0368 46.1533H37.9136C37.8795 46.1534 37.8458 46.1599 37.8144 46.1725C37.783 46.1851 37.7545 46.2035 37.7305 46.2266C37.7065 46.2497 37.6875 46.2771 37.6747 46.3072C37.6618 46.3373 37.6553 46.3696 37.6555 46.4021L37.6565 52.1622H32.7888V46.4021C32.789 46.3696 32.7825 46.3374 32.7697 46.3073C32.7568 46.2772 32.7379 46.2499 32.714 46.2268C32.6901 46.2036 32.6616 46.1853 32.6303 46.1727C32.5989 46.16 32.5652 46.1535 32.5312 46.1533H29.4085C29.3745 46.1534 29.3408 46.1599 29.3093 46.1725C29.2779 46.1851 29.2494 46.2035 29.2254 46.2266C29.2014 46.2497 29.1825 46.2771 29.1696 46.3072C29.1567 46.3373 29.1502 46.3696 29.1504 46.4021V61.9996C29.1504 62.1366 29.2665 62.2484 29.4085 62.2484H32.5312C32.5653 62.2482 32.599 62.2416 32.6304 62.2289C32.6618 62.2163 32.6903 62.1979 32.7142 62.1747C32.7381 62.1516 32.757 62.1241 32.7698 62.094C32.7826 62.0638 32.7891 62.0316 32.7888 61.9991V55.3277H37.6565L37.6482 61.9991C37.6482 62.1366 37.7643 62.2484 37.9074 62.2484H41.0368C41.0709 62.2482 41.1046 62.2416 41.136 62.2289C41.1674 62.2163 41.1958 62.1979 41.2198 62.1747C41.2437 62.1516 41.2626 62.1241 41.2754 62.094C41.2882 62.0638 41.2947 62.0316 41.2944 61.9991V46.4016C41.2944 46.2641 41.1804 46.1533 41.0368 46.1533ZM16.5913 46.5079C15.4801 46.5079 14.5783 47.3751 14.5783 48.4486C14.5783 49.5206 15.4801 50.3903 16.5913 50.3903C17.7036 50.3903 18.6049 49.5206 18.6049 48.4486C18.6049 47.3751 17.7031 46.5079 16.5913 46.5079ZM18.1234 51.2609H15.0106C14.8675 51.2609 14.74 51.4014 14.74 51.5379V61.8531C14.74 62.1564 14.938 62.2464 15.1941 62.2464H17.998C18.3064 62.2464 18.3815 62.102 18.3815 61.8482V58.7089V51.5097C18.3816 51.4772 18.3751 51.4451 18.3622 51.415C18.3493 51.3849 18.3303 51.3576 18.3063 51.3345C18.2824 51.3115 18.2539 51.2932 18.2225 51.2806C18.1911 51.2681 18.1574 51.261 18.1234 51.2609ZM53.1626 51.2841H50.0632C50.0292 51.2844 49.9956 51.2911 49.9642 51.3037C49.9329 51.3164 49.9045 51.3348 49.8806 51.358C49.8567 51.3811 49.8379 51.4086 49.8251 51.4387C49.8123 51.4688 49.8059 51.501 49.8062 51.5335V59.1813C49.8062 59.1813 49.0184 59.7304 47.9015 59.7304C46.7846 59.7304 46.4881 59.2471 46.4881 58.2028V51.5335C46.4884 51.5009 46.4819 51.4687 46.4691 51.4386C46.4563 51.4084 46.4374 51.381 46.4135 51.3578C46.3896 51.3347 46.3611 51.3162 46.3297 51.3036C46.2983 51.2909 46.2646 51.2843 46.2305 51.2841H43.0856C43.0167 51.2847 42.9509 51.3112 42.9026 51.3579C42.8542 51.4047 42.8272 51.4678 42.8275 51.5335V58.7074C42.8275 61.8091 44.6389 62.5679 47.1303 62.5679C49.1744 62.5679 50.8225 61.4895 50.8225 61.4895C50.8225 61.4895 50.9003 62.0584 50.9366 62.1252C50.9728 62.1925 51.0646 62.2603 51.1646 62.2603L53.1652 62.2518C53.1993 62.2517 53.2332 62.2452 53.2647 62.2326C53.2962 62.22 53.3248 62.2016 53.3489 62.1784C53.3729 62.1553 53.392 62.1278 53.4049 62.0976C53.4179 62.0675 53.4245 62.0351 53.4243 62.0025L53.4228 51.532C53.4225 51.4664 53.3951 51.4035 53.3466 51.357C53.2981 51.3105 53.2324 51.2842 53.1636 51.2837L53.1626 51.2841ZM61.6324 50.9339C59.8723 50.9339 58.6751 51.6834 58.6751 51.6834V46.4016C58.6753 46.3691 58.6688 46.3369 58.6559 46.3068C58.6431 46.2767 58.6242 46.2494 58.6003 46.2263C58.5764 46.2032 58.5479 46.1848 58.5165 46.1722C58.4852 46.1595 58.4515 46.153 58.4175 46.1528H55.2865C55.2524 46.1528 55.2185 46.1592 55.187 46.1717C55.1555 46.1843 55.1268 46.2026 55.1027 46.2257C55.0786 46.2489 55.0596 46.2763 55.0467 46.3065C55.0337 46.3367 55.0272 46.369 55.0274 46.4016V61.9991C55.0272 62.0317 55.0337 62.064 55.0467 62.0942C55.0596 62.1244 55.0786 62.1518 55.1027 62.1749C55.1268 62.198 55.1555 62.2164 55.187 62.2289C55.2185 62.2414 55.2524 62.2479 55.2865 62.2479H57.4592C57.5577 62.2479 57.6312 62.1999 57.6857 62.1153C57.7391 62.0312 57.8173 61.396 57.8173 61.396C57.8173 61.396 59.0975 62.5536 61.522 62.5536C64.3674 62.5536 66 61.1764 66 56.369C66 51.5617 63.393 50.9334 61.6319 50.9334L61.6324 50.9339ZM60.4093 59.7215C59.3349 59.6904 58.6056 59.2249 58.6056 59.2249V54.2854C58.6056 54.2854 59.325 53.8649 60.2071 53.7887C61.323 53.6933 62.3984 54.0153 62.3984 56.556C62.3984 59.2357 61.9138 59.7646 60.4098 59.721L60.4093 59.7215ZM27.4002 59.6632C27.2639 59.6632 26.9146 59.7161 26.5554 59.7161C25.4048 59.7161 25.0145 59.2056 25.0145 58.5447V54.1588H27.3572C27.3914 54.1588 27.4252 54.1523 27.4568 54.1398C27.4884 54.1272 27.5171 54.1088 27.5411 54.0856C27.5652 54.0624 27.5843 54.035 27.5972 54.0047C27.6101 53.9745 27.6166 53.9421 27.6163 53.9094V51.5073C27.6164 51.4747 27.6098 51.4424 27.5969 51.4123C27.5839 51.3822 27.5649 51.3548 27.5408 51.3317C27.5167 51.3086 27.4881 51.2903 27.4566 51.2778C27.4251 51.2653 27.3913 51.2589 27.3572 51.2589H25.0145L25.0109 48.3056C25.0109 48.1933 24.9508 48.1374 24.815 48.1374H21.6223C21.499 48.1374 21.4321 48.1899 21.4321 48.3032V51.3554C21.4321 51.3554 19.8322 51.7239 19.7244 51.7536C19.6706 51.7686 19.6233 51.7998 19.5896 51.8426C19.556 51.8855 19.5378 51.9375 19.5378 51.9911V53.909C19.5376 53.9414 19.5441 53.9736 19.5569 54.0037C19.5698 54.0338 19.5887 54.0612 19.6126 54.0843C19.6365 54.1074 19.665 54.1258 19.6963 54.1384C19.7277 54.151 19.7614 54.1576 19.7954 54.1578H21.4321V58.7722C21.4321 62.2004 23.951 62.5368 25.651 62.5368C26.4268 62.5368 27.3561 62.2993 27.5095 62.2449C27.6028 62.2118 27.6562 62.1203 27.6562 62.0208L27.6583 59.911C27.6572 59.8456 27.6296 59.7832 27.5813 59.7369C27.5329 59.6905 27.4676 59.6639 27.3992 59.6627L27.4002 59.6632Z" fill="#100E0F"/>
</svg>
