<svg width="62" height="69" viewBox="0 0 62 69" fill="none" xmlns="http://www.w3.org/2000/svg">
<path d="M61.0398 27.3652H58.5573V27.224H30.8196V40.836H48.2373C45.6963 48.7599 38.8682 54.448 30.8196 54.448C20.6075 54.448 12.3278 45.3058 12.3278 34.03C12.3278 22.7542 20.6075 13.612 30.8196 13.612C35.5335 13.612 39.822 15.5755 43.0874 18.7829L51.8047 9.15747C46.3003 3.49318 38.9375 0 30.8196 0C13.7995 0 0 15.2369 0 34.03C0 52.8231 13.7995 68.06 30.8196 68.06C47.8398 68.06 61.6392 52.8231 61.6392 34.03C61.6392 31.7483 61.4266 29.521 61.0398 27.3652Z" fill="#FFC107"/>
<path d="M3.55322 18.1907L13.679 26.3903C16.4189 18.9003 23.0543 13.612 30.8193 13.612C35.5332 13.612 39.8218 15.5755 43.0871 18.7829L51.8044 9.15747C46.3 3.49318 38.9372 0 30.8193 0C18.9815 0 8.71551 7.3794 3.55322 18.1907Z" fill="#FF3D00"/>
<path d="M30.8195 68.0599C38.7802 68.0599 46.0136 64.696 51.4825 59.2257L41.9438 50.3132C38.8495 52.9012 35.0033 54.4479 30.8195 54.4479C22.8033 54.4479 15.9968 48.804 13.4326 40.9277L3.38232 49.4778C8.48297 60.4984 18.8414 68.0599 30.8195 68.0599Z" fill="#4CAF50"/>
<path d="M61.04 27.3651H58.5575V27.2239H30.8198V40.8359H48.2375C47.0171 44.6421 44.7996 47.9243 41.9395 50.3149C41.9411 50.3132 41.9426 50.3132 41.9442 50.3115L51.4828 59.224C50.8079 59.9012 61.6394 51.0449 61.6394 34.0299C61.6394 31.7482 61.4268 29.5209 61.04 27.3651Z" fill="#1976D2"/>
</svg>
