<svg width="66" height="69" viewBox="0 0 66 69" fill="none" xmlns="http://www.w3.org/2000/svg">
<path d="M33 68.0625C51.2254 68.0625 66 52.8262 66 34.0312C66 15.2363 51.2254 0 33 0C14.7746 0 0 15.2363 0 34.0312C0 52.8262 14.7746 68.0625 33 68.0625Z" fill="#0A66C2"/>
<path d="M44.1725 46.0595H39.274V38.1499C39.274 36.2622 39.2354 33.8362 36.7217 33.8362C34.1693 33.8362 33.7762 35.89 33.7762 38.0103V46.0595H28.8777V29.7883H33.5828V32.0083H33.6473C34.3047 30.7321 35.9031 29.3829 38.2879 29.3829C43.2508 29.3829 44.166 32.7527 44.166 37.1329L44.1725 46.0595ZM23.3541 27.5617C21.775 27.5617 20.5117 26.2456 20.5117 24.6304C20.5117 23.0153 21.7814 21.6992 23.3541 21.6992C24.9268 21.6992 26.1965 23.0153 26.1965 24.6304C26.1965 26.2456 24.9203 27.5617 23.3541 27.5617ZM25.8098 46.0595H20.8984V29.7883H25.8098V46.0595ZM46.6217 17H18.4428C17.0957 17 16 18.0967 16 19.4593V48.6384C16 49.9944 17.0893 51.0977 18.4428 51.0977H46.6152C47.9623 51.0977 49.0645 50.001 49.0645 48.6384V19.4593C49.0645 18.0967 47.9623 17 46.6217 17Z" fill="white"/>
</svg>
