<svg width="62" height="69" viewBox="0 0 62 69" fill="none" xmlns="http://www.w3.org/2000/svg">
<path d="M61.0398 27.3652H58.5573V27.224H30.8196V40.836H48.2373C45.6963 48.7599 38.8682 54.448 30.8196 54.448C20.6075 54.448 12.3278 45.3058 12.3278 34.03C12.3278 22.7542 20.6075 13.612 30.8196 13.612C35.5335 13.612 39.822 15.5755 43.0874 18.7829L51.8047 9.15747C46.3003 3.49318 38.9375 0 30.8196 0C13.7995 0 0 15.2369 0 34.03C0 52.8231 13.7995 68.06 30.8196 68.06C47.8398 68.06 61.6392 52.8231 61.6392 34.03C61.6392 31.7483 61.4266 29.521 61.0398 27.3652Z" fill="#FFC107"/>
</svg>
