<svg width="34" height="35" viewBox="0 0 34 35" fill="none" xmlns="http://www.w3.org/2000/svg">
<path d="M28.6725 29.0751H23.774V21.1655C23.774 19.2778 23.7354 16.8518 21.2217 16.8518C18.6693 16.8518 18.2762 18.9056 18.2762 21.0259V29.0751H13.3777V12.8039H18.0828V15.0239H18.1473C18.8047 13.7478 20.4031 12.3985 22.7879 12.3985C27.7508 12.3985 28.666 15.7684 28.666 20.1486L28.6725 29.0751ZM7.8541 10.5773C6.275 10.5773 5.01172 9.26122 5.01172 7.64607C5.01172 6.03091 6.28145 4.71486 7.8541 4.71486C9.42676 4.71486 10.6965 6.03091 10.6965 7.64607C10.6965 9.26122 9.42031 10.5773 7.8541 10.5773ZM10.3098 29.0751H5.39844V12.8039H10.3098V29.0751ZM31.1217 0.015625H2.94277C1.5957 0.015625 0.5 1.11234 0.5 2.47491V31.6541C0.5 33.01 1.58926 34.1133 2.94277 34.1133H31.1152C32.4623 34.1133 33.5645 33.0166 33.5645 31.6541V2.47491C33.5645 1.11234 32.4623 0.015625 31.1217 0.015625Z" fill="white"/>
</svg>
